<svg width="24" height="24" viewBox="0 0 24 24" fill="none" xmlns="http://www.w3.org/2000/svg">
<g clip-path="url(#clip0_8230_4832)">
<path d="M9.00025 11.9998L11.0002 13.9998L15.0002 9.99975M7.9466 4.24947L6.25219 4.23679C5.13594 4.22843 4.22892 5.13545 4.23728 6.2517L4.24996 7.94611C4.25401 8.48691 4.03887 9.0063 3.6536 9.38584L2.44651 10.5751C1.65129 11.3585 1.65129 12.6412 2.44651 13.4246L3.6536 14.6137C4.03887 14.9933 4.25401 15.5127 4.24996 16.0535L4.23728 17.7479C4.22892 18.8641 5.13594 19.7711 6.25219 19.7628L7.9466 19.7501C8.4874 19.7461 9.00679 19.9612 9.38633 20.3465L10.5755 21.5536C11.3589 22.3488 12.6416 22.3488 13.425 21.5536L14.6141 20.3465C14.9937 19.9612 15.5131 19.7461 16.0539 19.7501L17.7483 19.7628C18.8645 19.7711 19.7715 18.8641 19.7632 17.7479L19.7505 16.0535C19.7465 15.5127 19.9616 14.9933 20.3469 14.6137L21.554 13.4246C22.3492 12.6412 22.3492 11.3585 21.554 10.5751L20.3469 9.38584C19.9616 9.0063 19.7465 8.48691 19.7505 7.94611L19.7632 6.2517C19.7715 5.13545 18.8645 4.22843 17.7483 4.23679L16.0539 4.24947C15.5131 4.25352 14.9937 4.03838 14.6141 3.65311L13.425 2.44602C12.6416 1.6508 11.3588 1.6508 10.5755 2.44602L9.38633 3.65311C9.00679 4.03838 8.4874 4.25352 7.9466 4.24947Z" stroke="#808080" stroke-width="2" stroke-linecap="round" stroke-linejoin="round"/>
</g>
<defs>
<clipPath id="clip0_8230_4832">
<rect width="24" height="24" fill="white"/>
</clipPath>
</defs>
</svg>
